/* XPM */
static char *result[] = {
/* columns rows colors chars-per-pixel */
"32 32 83 1 ",
"  c #394D7A",
". c #36527C",
"X c #34577E",
"o c #485B7E",
"O c #525E7E",
"+ c #3B5387",
"@ c #325B80",
"# c #325C80",
"$ c #306082",
"% c #35628D",
"& c #376292",
"* c #3C649C",
"= c #3D649E",
"- c #3D69A0",
"; c #3D6BA1",
": c #404A83",
"> c #414F86",
", c #485397",
"< c #435B9A",
"1 c #49589B",
"2 c #686884",
"3 c #6E7191",
"4 c #7F7F91",
"5 c #4858A5",
"6 c #4462A9",
"7 c #4266A9",
"8 c #4266AA",
"9 c #456EB3",
"0 c #4C6CB1",
"q c #4968B9",
"w c #4968BA",
"e c #4A6FBD",
"r c #5162B9",
"t c #4E6AC5",
"y c #4F6AC7",
"u c #4F6FC8",
"i c #5467C6",
"p c #556DC9",
"a c #4E78C5",
"s c #5475C6",
"d c #5177CF",
"f c #546CD1",
"g c #566CD6",
"h c #577BD2",
"j c #527DD2",
"k c #527DD3",
"l c #5B6EE1",
"z c #5C73E4",
"x c #5C75E6",
"c c #5B79E1",
"v c #5D7AE9",
"b c #5D7BEA",
"n c #4D82CA",
"m c #5C8AE2",
"M c #5D8FE5",
"N c #5E86EA",
"B c #5E80ED",
"V c #5E81EE",
"C c #5D95E2",
"Z c #5D96E2",
"A c #5E9FE6",
"S c #5D94F1",
"D c #609DEF",
"F c #6088F2",
"G c #6089F3",
"H c #618EF6",
"J c #618FF7",
"K c #6199F7",
"L c #6294FA",
"P c #6296FC",
"I c #639BFF",
"U c #5FA4EB",
"Y c #5EB3E3",
"T c #60A9EF",
"R c #60AFEC",
"E c #60ADEF",
"W c #61B8EF",
"Q c #62A9F7",
"! c #62A3FB",
"~ c #62A1FC",
"^ c #61B0F3",
"/ c #808494",
"( c None",
/* pixels */
"(((((3,1111111111111111111>/((((",
"(((3,pHI!QQQQQQQQQ~III!QQ~n<:/((",
"((3iHI!KUYYYYYYYYYEQQQRYYDJbq+/(",
"(4rH!KUmllllllllllZYYYmlllllf= (",
"(3hITmllllllllllllllllllllll7$./",
"4rH!Nlllllllllllllllllllllllq%$ ",
"4sITmllllllllllllllllllllllll7$ ",
"4s!Nllllllfyyyglllfyyygllllll7$ ",
"4sWClllllf=&*%8glf=&*%8glllll7$ ",
"4sWCllllf=&tlq%8y=&tlq%8gllll7$ ",
"4s^Aclll7&tlllq%$&tlllq%wlfyy=$ ",
"4sIWClll7wlllllq*tllllleuf9-%$$ ",
"4sIWClll78glllllllllllxHBqjb7$$ ",
"4sIWClllq%8glllllllllxHLblllq%$ ",
"4sIWCllllq%8glllllllxHLblllll7$ ",
"4sIWClllll7$wlllllllGIBllllll7$ ",
"4sIWCllllf=&tlllllllVPFzlllll7$ ",
"4sIWClllf=&tlllllllllVPFzllll7$ ",
"4sIWClll7&tlllllllllllVPBlllf=$ ",
"4s!RmllleulllllxvzlllllGBlll7$$ ",
"4sWCllllGFzlllxHIFzlllxHBlll7$$ ",
"4sWCllllVPFzlxHLJPFzlxHLblllq%$ ",
"4sWClllllVPFvHLblVPFvHLblllll7$ ",
"4sWCllllllVJJJblllVJJJbllllll7$ ",
"4s^Mllllllllllllllllllllllllf=$ ",
"40SBllllllllllfyygllllllllll7$$ ",
"(oabllllllllll7&;ulllllllllf=$@O",
"(45gfygllllllf=8kdyglllllfy=$$ (",
"((o6=$8yyyyyy=$$$$$8yyyyy=$$$@O(",
"(((oX#$$$$$$$$$$$$$$$$$$$$$@XO((",
"((((2oXXXXXXXXXXXXXXXXXXXXXO2(((",
"((((((222222222222222222222((((("
};
