/* XPM */
static char *result[] = {
/* columns rows colors chars-per-pixel */
"32 32 71 1 ",
"  c #524D25",
". c #515026",
"X c #515126",
"o c #505226",
"O c #505227",
"+ c #565F26",
"@ c #565E27",
"# c #58512E",
"$ c #4D5931",
"% c #535B38",
"& c #4D632E",
"* c #4C642D",
"= c #4B692F",
"- c #4B6A2F",
"; c #50782F",
": c #527C2F",
"> c #4A6B32",
", c #4C6D30",
"< c #4F7933",
"1 c #47723D",
"2 c #487039",
"3 c #48703A",
"4 c #507730",
"5 c #635F44",
"6 c #645F45",
"7 c #6A664E",
"8 c #5FB53E",
"9 c #64AA2F",
"0 c #69B82F",
"q c #67BC33",
"w c #68B830",
"e c #6ABD30",
"r c #6ABE30",
"t c #68BC33",
"y c #60B23A",
"u c #61B73B",
"i c #62B73A",
"p c #63B93C",
"a c #72C435",
"s c #72C535",
"d c #73C637",
"f c #3B8A60",
"g c #3B8B60",
"h c #3C8960",
"j c #3A8D63",
"k c #3A8D64",
"l c #3F9B64",
"z c #37946E",
"x c #38926B",
"c c #39966B",
"v c #3A966B",
"b c #3A976B",
"n c #38956E",
"m c #3C986C",
"M c #3C986D",
"N c #419760",
"B c #419860",
"V c #419960",
"C c #409961",
"Z c #409B63",
"A c #429D60",
"S c #429D61",
"D c #4CA567",
"F c #8FDC49",
"G c #86D653",
"H c #87D653",
"J c #84D357",
"K c #86D554",
"L c #88D755",
"P c #96E34E",
"I c None",
/* pixels */
"IIIII%@+++++++++++++++++++XIIIII",
"III%@Btrassrrrrasssssssssr:$.III",
"II%NtraiKLLdsssHLLLLLLLLLpuc1OII",
"I#NtaiKMzzzJLLLMzzzzzzzzzzzzk> I",
"I%wrGMzzzzzzzzzzzzzzzzzzzzzz>=oI",
"#Ntabzzzzzzzzzzzzzzzzzzzzzzz1== ",
"#0rGMzzzzzzzzzzzzzkzzzzzzzzzz>= ",
"#0abzzzzzzzzzzzkjz1Czzzzzzzzz>= ",
"#0Pmzzzzzzzzzzk>=gz8czzzzzzzz>= ",
"#0Pmzzzzzzzzzk>233Czzzzzzzzzz>= ",
"#0Pmzzzzzzzzk>2xzzqAzzzzzzzzz>= ",
"#0Pmzzzzzkjj>2xzzz8rAZZzzzzzk>= ",
"#0Pmzzzzz>233xzzzzz8uurvzzzz>== ",
"#0Pmzzzzz>gzzzzzzzzzzltvzzzz>== ",
"#0FDnzzzk>=gzzzzzzzzlticzzzz>== ",
"#0rPmzzz14;-xzzzzzzzqiczzzzz1== ",
"#0rPmzzzz8u,xzzzzzzzqvzzzzzzz>= ",
"#0rPmzzzzzk>xzzzzzzzqAzzzzzzk>= ",
"#0rPmzzzzz>2xzlZZZzz8rvzzzzz>== ",
"#0rPmzzzzz>xzltiuuSzzqvzzzzz1== ",
"#0rPmzzzzz<VZticzzqAZtvzzzzzz>= ",
"#0rPmzzzzz8uuuczzz8uuuczzzzzz>= ",
"#0aHMzzzzzzzzzzzzzzzzzzzzzzzz>= ",
"#0Pmzzzzzzzzzzzzzzzzzzzzzzzzz>= ",
"#0Fmzzzzzzzzzzzzzzzzzzzzzzzzk>= ",
"#9evzzzzzzzzzzzzzzzzzzzzzzzz>== ",
"7&yczzzzzzzzzzzzzzzzzzzzzzzk>=*5",
"I#hzkjzzzzzkjjjjjzzzzzzzzkj>== I",
"I7&f>=gjjjj>=====gjjjjjjj>===*5I",
"II7&*======================**5II",
"III76&*********************56III",
"IIIII7666666666666666666666IIIII"
};
