/* XPM */
static char *result[] = {
/* columns rows colors chars-per-pixel */
"32 32 2 1 ",
"  c #A28979",
". c #BDA28E",
/* pixels */
"    ............    ............",
"      ..........      ..........",
"         .......         .......",
"            ....            ....",
".            ....            ...",
".            ....            ...",
"..           .....           ...",
"..            ....            ..",
"..            ....            ..",
"...           .....           ..",
"...            ....            .",
"...            ....            .",
"....            ....            ",
".......         .......         ",
"..........      ..........      ",
"............    ............    ",
"    ............    ............",
"      ..........      ..........",
"         .......         .......",
"            ....            ....",
".            ....            ...",
".            ....            ...",
"..           .....           ...",
"..            ....            ..",
"..            ....            ..",
"...           .....           ..",
"...            ....            .",
"...            ....            .",
"....            ....            ",
".......         .......         ",
"..........      ..........      ",
"............    ............    "
};
