/* XPM */
static char *result[] = {
/* columns rows colors chars-per-pixel */
"32 32 2 1 ",
"  c #ECC589",
". c #F6DB98",
/* pixels */
"   .....  ............  .....   ",
"  .....    ..........    .....  ",
" .....      ........      ..... ",
".....        ......        .....",
"....          ....          ....",
"...            ..            ...",
"..                            ..",
".                              .",
"               ..               ",
"              ....              ",
".            ......            .",
"..          ........          ..",
"...        ..........        ...",
"....      .....  .....      ....",
".....    .....    .....    .....",
"......  .....      .....  ......",
"......  .....      .....  ......",
".....    .....    .....    .....",
"....      .....  .....      ....",
"...        ..........        ...",
"..          ........          ..",
".            ......            .",
"              ....              ",
"               ..               ",
".                              .",
"..                            ..",
"...            ..            ...",
"....          ....          ....",
".....        ......        .....",
" .....      ........      ..... ",
"  .....    ..........    .....  ",
"   .....  ............  .....   "
};
