/* XPM */
static char *color_background_501710776648[] = {
/* columns rows colors chars-per-pixel */
"32 32 2 1 ",
"  c #E581B7",
". c #F698C2",
/* pixels */
".......  ..............  .......",
".......  ..............  .......",
".......  ..............  .......",
".......  ..............  .......",
"......    ............    ......",
"......    ............    ......",
"....        ........        ....",
"                                ",
"                                ",
"....        ........        ....",
"......    ............    ......",
"......    ............    ......",
".......  ..............  .......",
".......  ..............  .......",
".......  ..............  .......",
".......  ..............  .......",
".......  ..............  .......",
".......  ..............  .......",
".......  ..............  .......",
".......  ..............  .......",
"......    ............    ......",
"......    ............    ......",
"....        ........        ....",
"                                ",
"                                ",
"....        ........        ....",
"......    ............    ......",
"......    ............    ......",
".......  ..............  .......",
".......  ..............  .......",
".......  ..............  .......",
".......  ..............  ......."
};
