/* XPM */
static char *result[] = {
/* columns rows colors chars-per-pixel */
"32 32 2 1 ",
"  c #E177EA",
". c #ED81F0",
/* pixels */
"........        ........        ",
" ........        ........       ",
"  ........        ........      ",
"   ........        ........     ",
"    ........        ........    ",
"     ........        ........   ",
"      ........        ........  ",
"       ........        ........ ",
"        ........        ........",
".        ........        .......",
"..        ........        ......",
"...        ........        .....",
"....        ........        ....",
".....        ........        ...",
"......        ........        ..",
".......        ........        .",
"........        ........        ",
" ........        ........       ",
"  ........        ........      ",
"   ........        ........     ",
"    ........        ........    ",
"     ........        ........   ",
"      ........        ........  ",
"       ........        ........ ",
"        ........        ........",
".        ........        .......",
"..        ........        ......",
"...        ........        .....",
"....        ........        ....",
".....        ........        ...",
"......        ........        ..",
".......        ........        ."
};
