/* XPM */
static char *color_background_801710776712[] = {
/* columns rows colors chars-per-pixel */
"32 32 2 1 ",
"  c #ECC589",
". c #F6DB98",
/* pixels */
"                                ",
"                                ",
"  ....    ....    ....    ....  ",
"  ...     ...     ...     ...   ",
"  ..      ..      ..      ..    ",
"  .       .       .       .     ",
"                                ",
"                                ",
"                                ",
"                                ",
"  ....    ....    ....    ....  ",
"  ...     ...     ...     ...   ",
"  ..      ..      ..      ..    ",
"  .       .       .       .     ",
"                                ",
"                                ",
"                                ",
"                                ",
"  ....    ....    ....    ....  ",
"  ...     ...     ...     ...   ",
"  ..      ..      ..      ..    ",
"  .       .       .       .     ",
"                                ",
"                                ",
"                                ",
"                                ",
"  ....    ....    ....    ....  ",
"  ...     ...     ...     ...   ",
"  ..      ..      ..      ..    ",
"  .       .       .       .     ",
"                                ",
"                                "
};
