/* XPM */
static char *result[] = {
/* columns rows colors chars-per-pixel */
"32 32 2 1 ",
"  c #EB8DEF",
". c #F698F2",
/* pixels */
"....                       .....",
"....                       .....",
"...                       ......",
"...                       ......",
"..                       .......",
"..                       .......",
".                       ........",
".                      .........",
"                      ..........",
"                     ...........",
"                   ............ ",
"                 .............. ",
"              ................  ",
"           ..................   ",
"         ...................    ",
"       ....................     ",
"     ....................       ",
"    ...................         ",
"   ..................           ",
"  ................              ",
" ..............                 ",
" ............                   ",
"...........                     ",
"..........                      ",
".........                      .",
"........                       .",
".......                       ..",
".......                       ..",
"......                       ...",
"......                       ...",
".....                       ....",
".....                       ...."
};
