/* XPM */
static char *color_background_781710776711[] = {
/* columns rows colors chars-per-pixel */
"32 32 2 1 ",
"  c #EAAB73",
". c #ECBA82",
/* pixels */
" .............   .............  ",
".............   .............   ",
"............   .............   .",
"...........   .............   ..",
"..........   .............   ...",
".........   .............   ....",
"........   .............   .....",
".......   ... .........   ......",
"......     ...........   .......",
".....   .   .........   ........",
"....   ...   ... ...   .........",
"...   .....   .....   ..........",
"..   ... ...   ...   ...........",
".   .........   .   ............",
"   ...........     .............",
"  ......... ...   ............. ",
" .............   .............  ",
".............   .............   ",
"............   .............   .",
"...........   .............   ..",
"..........   .............   ...",
".........   .............   ....",
"........   .............   .....",
".......   ... .........   ......",
"......     ...........   .......",
".....   .   .........   ........",
"....   ...   ... ...   .........",
"...   .....   .....   ..........",
"..   ... ...   ...   ...........",
".   .........   .   ............",
"   ...........     .............",
"  ......... ...   ............. "
};
