/* XPM */
static char *color_background_861710776714[] = {
/* columns rows colors chars-per-pixel */
"32 32 2 1 ",
"  c #FF86A6",
". c #FF9BAB",
/* pixels */
"                                ",
" ..                          .. ",
"....         ..  ..         ....",
"....        ........        ....",
"....        ........        ....",
"...         ........         ...",
"..           ......           ..",
".             ....             .",
"               ..               ",
"                                ",
"                                ",
"                                ",
"      ..  ..                    ",
"     ........         ..  ..    ",
"     ........        ........   ",
"     ........        ........   ",
"      ......         ........   ",
"       ....           ......    ",
"        ..             ....     ",
"                        ..      ",
"                                ",
"                                ",
"                                ",
"   ..  ..                       ",
"  ........        ..  ..        ",
"  ........       ........       ",
"  ........       ........       ",
"   ......        ........       ",
"    ....          ......        ",
"     ..            ....         ",
"                    ..          ",
"                                "
};
