/* XPM */
static char *color_background_881710776714[] = {
/* columns rows colors chars-per-pixel */
"32 32 2 1 ",
"  c #A7A9B3",
". c #D2CFDE",
/* pixels */
".......                 ........",
".....                      .....",
"...                          ...",
"..                            ..",
"..                            ..",
".                              .",
".                              .",
".                               ",
"               .                ",
"               ..               ",
"               ..               ",
"              ....              ",
"              ....              ",
"             ......             ",
"           ..........           ",
"         ...............        ",
"        ...............         ",
"           ..........           ",
"             ......             ",
"              ....              ",
"              ....              ",
"               ..               ",
"               ..               ",
"                .               ",
"                               .",
".                              .",
".                              .",
"..                            ..",
"..                            ..",
"...                          ...",
".....                      .....",
"........                 ......."
};
