/* XPM */
static char *result[] = {
/* columns rows colors chars-per-pixel */
"32 32 2 1 ",
"  c #D9AA9E",
". c #EABDB8",
/* pixels */
"                                ",
"  ............    ............  ",
" ..............  .............. ",
" ..............  .............. ",
" .............   .............  ",
" ..............  .............. ",
" .............   .............  ",
" ............ .  ............ . ",
" .............   .............  ",
" ............ .  ............ . ",
" .............   .............  ",
" ............ .  ............ . ",
" ........... .   ........... .  ",
" ........ . . .  ........ . . . ",
"  ...... . . .    ...... . . .  ",
"                                ",
"                                ",
"  ............    ............  ",
" ..............  .............. ",
" ..............  .............. ",
" .............   .............  ",
" ..............  .............. ",
" .............   .............  ",
" ............ .  ............ . ",
" .............   .............  ",
" ............ .  ............ . ",
" .............   .............  ",
" ............ .  ............ . ",
" ........... .   ........... .  ",
" ........ . . .  ........ . . . ",
"  ...... . . .    ...... . . .  ",
"                                "
};
