/* XPM */
static char *color_background_421710776648[] = {
/* columns rows colors chars-per-pixel */
"32 32 2 1 ",
"  c #73E6A0",
". c #81F0B3",
/* pixels */
".....                      .....",
".....                      .....",
"....                        ....",
"...                          ...",
"..                            ..",
"                                ",
"                                ",
"             ......             ",
"           ..........           ",
"          ............          ",
"         ..............         ",
"        ................        ",
"        ................        ",
"       ..................       ",
"       ..................       ",
"       ..................       ",
"       ..................       ",
"       ..................       ",
"       ..................       ",
"        ................        ",
"        ................        ",
"         ..............         ",
"          ............          ",
"           ..........           ",
"             ......             ",
"                                ",
"                                ",
"..                            ..",
"...                          ...",
"....                        ....",
".....                      .....",
".....                      ....."
};
