/* XPM */
static char *color_background_751710776710[] = {
/* columns rows colors chars-per-pixel */
"32 32 2 1 ",
"  c #58DBC2",
". c #6EE4D5",
/* pixels */
"                                ",
"                                ",
"   ..........      ..........   ",
"  ............    ............  ",
"  ............    ............  ",
"  ...      ...    ...      ...  ",
"  ...      ...    ...      ...  ",
"  ... ........    ... ........  ",
"  ... ........    ... ........  ",
"  ...  ......     ...  ......   ",
"  ...             ...           ",
"  ...             ...           ",
"................................",
"................................",
"................................",
"                                ",
"                                ",
"                                ",
".....      ..........      .....",
"......    ............    ......",
"......    ............    ......",
"   ...    ...      ...    ...   ",
"   ...    ...      ...    ...   ",
".. ...    ........ ...    ......",
".. ...    ........ ...    ......",
".  ...     ......  ...     .....",
"   ...             ...          ",
"   ...             ...          ",
"................................",
"................................",
"................................",
"                                "
};
