/* XPM */
static char *color_background_211710776613[] = {
/* columns rows colors chars-per-pixel */
"32 32 2 1 ",
"  c #BBD8B7",
". c #CBE3C5",
/* pixels */
" ..............                 ",
"  ............  .              .",
"   ..........   ..            ..",
"    ........    ...          ...",
"     ......     ....        ....",
"      ....      .....      .....",
"       ..       ......    ......",
"                .......  .......",
"                .......  .......",
"       ..       ......    ......",
"      ....      .....      .....",
"     ......     ....        ....",
"    ........    ...          ...",
"   ..........   ..            ..",
"  ............  .              .",
" ..............                 ",
"                 .............. ",
".              .  ............  ",
"..            ..   ..........   ",
"...          ...    ........    ",
"....        ....     ......     ",
".....      .....      ....      ",
"......    ......       ..       ",
".......  .......                ",
".......  .......                ",
"......    ......       ..       ",
".....      .....      ....      ",
"....        ....     ......     ",
"...          ...    ........    ",
"..            ..   ..........   ",
".              .  ............  ",
"                 .............. "
};
