/* XPM */
static char *color_background_681710776707[] = {
/* columns rows colors chars-per-pixel */
"32 32 2 1 ",
"  c #E8E192",
". c #F8F0B7",
/* pixels */
"         . . . .         . . . .",
"        . . . .         . . . . ",
"         . . . .         . . . .",
"        . . . .         . . . . ",
"         . . . .         . . . .",
"        . . . .         . . . . ",
"         . . . .         . . . .",
"        . . . .         . . . . ",
" . . . .........................",
". . . . ........................",
" . . . .........................",
". . . . ........................",
" . . . .........................",
". . . . ........................",
" . . . .........................",
". . . . .......          .......",
"        .......          .......",
"        .......          .......",
"        .......   ....   .......",
"        .......   ....   .......",
"        .......   ....   .......",
"        .......   ....   .......",
"        .......          .......",
"        .......          .......",
" . . . ........          .......",
". . . . ........................",
" . . . .........................",
". . . . ........................",
" . . . .........................",
". . . . ........................",
" . . . .........................",
". . . . ........................"
};
