/* XPM */
static char *result[] = {
/* columns rows colors chars-per-pixel */
"32 32 2 1 ",
"  c #98B7E4",
". c #ACCFEB",
/* pixels */
".............      .............",
"............        ............",
"...........          ...........",
"..........     ..     ..........",
".........     ....     .........",
"........     ......     ........",
".......     ........     .......",
"......     ..........     ......",
".....     ............     .....",
"....     ..............     ....",
"...     ................     ...",
"..     ..................     ..",
".     ....................     .",
"     ......................     ",
"    ........................    ",
"   ..........................   ",
"   ..........................   ",
"    ........................    ",
"     ......................     ",
".     ....................     .",
"..     ..................     ..",
"...     ................     ...",
"....     ..............     ....",
".....     ............     .....",
"......     ..........     ......",
".......     ........     .......",
"........     ......     ........",
".........     ....     .........",
"..........     ..     ..........",
"...........          ...........",
"............        ............",
".............      ............."
};
