/* XPM */
static char *color_background_541710776648[] = {
/* columns rows colors chars-per-pixel */
"32 32 2 1 ",
"  c #D8B9B7",
". c #E3C5C6",
/* pixels */
"                                ",
"                                ",
"...........  ..............  ...",
"...........  ..............  ...",
"...........  ..............  ...",
"...........  ..............  ...",
"...........  ..............  ...",
"...........  ..............  ...",
"                                ",
"                                ",
"....  ..............  ..........",
"....  ..............  ..........",
"....  ..............  ..........",
"....  ..............  ..........",
"....  ..............  ..........",
"....  ..............  ..........",
"                                ",
"                                ",
"...........  ..............  ...",
"...........  ..............  ...",
"...........  ..............  ...",
"...........  ..............  ...",
"...........  ..............  ...",
"...........  ..............  ...",
"                                ",
"                                ",
"....  ..............  ..........",
"....  ..............  ..........",
"....  ..............  ..........",
"....  ..............  ..........",
"....  ..............  ..........",
"....  ..............  .........."
};
