/* XPM */
static char *color_background_661710776706[] = {
/* columns rows colors chars-per-pixel */
"32 32 3 1 ",
"  c #98B7E4",
". c #ACCFEB",
"X c #DADADA",
/* pixels */
"X..............                 ",
"................                ",
"................                ",
"................                ",
"................                ",
"................                ",
"................                ",
"................                ",
"................                ",
"................                ",
"................                ",
"................                ",
"................                ",
"................                ",
"................                ",
" ..............                 ",
"                 .............. ",
"                ................",
"                ................",
"                ................",
"                ................",
"                ................",
"                ................",
"                ................",
"                ................",
"                ................",
"                ................",
"                ................",
"                ................",
"                ................",
"                ................",
"                 ..............X"
};
