/* XPM */
static char *result[] = {
/* columns rows colors chars-per-pixel */
"32 32 2 1 ",
"  c #B7B9D8",
". c #C9CDE8",
/* pixels */
"  ............    ............  ",
"   ..........      ..........   ",
".   ........   ..   ........   .",
"..   ......   ....   ......   ..",
"...   ....   ......   ....   ...",
"....   ..   ........   ..   ....",
".....      ..........      .....",
"......    ............    ......",
"......    ............    ......",
".....      ..........      .....",
"....   ..   ........   ..   ....",
"...   ....   ......   ....   ...",
"..   ......   ....   ......   ..",
".   ........   ..   ........   .",
"   ..........      ..........   ",
"  ............    ............  ",
"  ............    ............  ",
"   ..........      ..........   ",
".   ........   ..   ........   .",
"..   ......   ....   ......   ..",
"...   ....   ......   ....   ...",
"....   ..   ........   ..   ....",
".....      ..........      .....",
"......    ............    ......",
"......    ............    ......",
".....      ..........      .....",
"....   ..   ........   ..   ....",
"...   ....   ......   ....   ...",
"..   ......   ....   ......   ..",
".   ........   ..   ........   .",
"   ..........      ..........   ",
"  ............    ............  "
};
