/* XPM */
static char *color_background_631710776706[] = {
/* columns rows colors chars-per-pixel */
"32 32 2 1 ",
"  c #93CA8B",
". c #A8D99C",
/* pixels */
"                 .............  ",
"                ............... ",
"  ..       ..   ..  .......  .. ",
"  ..       ..   ..  .......  .. ",
"                ............... ",
"                ............... ",
"                ............... ",
"                ............... ",
"                ............... ",
"                ............... ",
"                ............... ",
"  ..       ..   ..  .......  .. ",
"  ..       ..   ..  .......  .. ",
"                ............... ",
"                 .............  ",
"                                ",
" .............                  ",
"...............                 ",
"..  .......  ..   ..       ..   ",
"..  .......  ..   ..       ..   ",
"...............                 ",
"...............                 ",
"...............                 ",
"...............                 ",
"...............                 ",
"...............                 ",
"...............                 ",
"..  .......  ..   ..       ..   ",
"..  .......  ..   ..       ..   ",
"...............                 ",
" .............                  ",
"                                "
};
