/* XPM */
static char *color_background_771710776711[] = {
/* columns rows colors chars-per-pixel */
"32 32 2 1 ",
"  c #FFCA7A",
". c #FFE093",
/* pixels */
"......    ............    ......",
"......    ............    ......",
"......    ............    ......",
".....      ..........      .....",
"....        ........        ....",
"...          ......          ...",
"..            ....            ..",
".      ..      ..      ..      .",
"      ....            ....      ",
"     ......          ......     ",
"    ........        ........    ",
"   ..........      ..........   ",
"  ............    ............  ",
"  ............    ............  ",
"  ............    ............  ",
"  ............    ............  ",
"  ............    ............  ",
"  ............    ............  ",
"  ............    ............  ",
"   ..........      ..........   ",
"    ........        ........    ",
"     ......          ......     ",
"      ....            ....      ",
".      ..      ..      ..      .",
"..            ....            ..",
"...          ......          ...",
"....        ........        ....",
".....      ..........      .....",
"......    ............    ......",
"......    ............    ......",
"......    ............    ......",
"......    ............    ......"
};
