/* XPM */
static char *color_background_611710776705[] = {
/* columns rows colors chars-per-pixel */
"32 32 2 1 ",
"  c #FAED77",
". c #FFFB90",
/* pixels */
" .............................  ",
"............................... ",
"...  .....................  ... ",
"..    ...................    .. ",
"..    ...................    .. ",
"...  .....................  ... ",
"..........           .......... ",
".........             ......... ",
"........               ........ ",
"........               ........ ",
"........     .....     ........ ",
"........    .......    ........ ",
"........    .......    ........ ",
".........  ........    ........ ",
"...................    ........ ",
"..................     ........ ",
"...............        ........ ",
"..............        ......... ",
".............        .......... ",
".............     ............. ",
".............    .............. ",
".............    .............. ",
"............................... ",
"............................... ",
".............    .............. ",
"...  ........    .........  ... ",
"..    .......    ........    .. ",
"..    ........  .........    .. ",
"...  .....................  ... ",
"............................... ",
" .............................  ",
"                                "
};
