/* XPM */
static char *result[] = {
/* columns rows colors chars-per-pixel */
"32 32 2 1 ",
"  c #98D8B5",
". c #A8E6CA",
/* pixels */
"....        ........        ....",
"....        ........        ....",
"...          ......          ...",
"..            ....            ..",
"                                ",
"                                ",
"                                ",
"                                ",
"                                ",
"                                ",
"                                ",
"                                ",
"..            ....            ..",
"...          ......          ...",
"....        ........        ....",
"....        ........        ....",
"....        ........        ....",
"....        ........        ....",
"...          ......          ...",
"..            ....            ..",
"                                ",
"                                ",
"                                ",
"                                ",
"                                ",
"                                ",
"                                ",
"                                ",
"..            ....            ..",
"...          ......          ...",
"....        ........        ....",
"....        ........        ...."
};
