/* XPM */
static char *result[] = {
/* columns rows colors chars-per-pixel */
"32 32 2 1 ",
"  c #EF958D",
". c #F6A498",
/* pixels */
"                                ",
"                                ",
"..............   ...............",
"..............   ...............",
"..............   ...............",
"..............   ...............",
"..............   ...............",
"..............   ...............",
"..............   ...............",
"..............   ...............",
"..............   ...............",
"..............   ...............",
"..............   ...............",
"..............   ...............",
"..............   ...............",
"                                ",
"                                ",
"                                ",
"  ............................. ",
"  ............................. ",
"  ............................. ",
"  ............................. ",
"  ............................. ",
"  ............................. ",
"  ............................. ",
"  ............................. ",
"  ............................. ",
"  ............................. ",
"  ............................. ",
"  ............................. ",
"  ............................. ",
"                                "
};
