/* XPM */
static char *color_background_761710776710[] = {
/* columns rows colors chars-per-pixel */
"32 32 2 1 ",
"  c #A977EA",
". c #B881F0",
/* pixels */
"....    ....    .......    .....",
".....    ..    .......    ......",
"......        .......    .......",
".......      .......    ....... ",
" .......    .......    .......  ",
"  .......  .......    .......   ",
"   ..............    .......    ",
"    ............    .......    .",
".    ..........    .......    ..",
"..    ........    .......    ...",
"..    ........     .....    ....",
".    ..........     ...    .....",
"    ............     .    ......",
"   ..............        ...... ",
"  .......  .......      ......  ",
" .......    .......    ......   ",
".......      .......  ......    ",
"......        .............    .",
".....    .     ...........    ..",
"....    ...     .........    ...",
"...    .....     .......    ....",
"..    .......    ........    ...",
".    .......    ..........    ..",
"    .......    ............    .",
"   .......    ...... .......    ",
"  .......    ......   .......   ",
" .......    ......     .......  ",
".......    ......       ....... ",
"......    ......    .    .......",
".....    ......    ...    ......",
"....    ......    .....    .....",
"...    ......    .......    ...."
};
