/* XPM */
static char *_3d33386814f44a98c4d856d774a0bbcy1L6nwioZ2IYRYl3[] = {
/* columns rows colors chars-per-pixel */
"32 32 2 1 ",
"  c #A579E2",
". c #CD9FF9",
/* pixels */
"   .....                  ..... ",
".    ....                ....  .",
".      ..                ..  ...",
".      .                   .....",
".    ..                   ......",
".   .                      .....",
". ..                         ...",
"..                             .",
"                                ",
"            .........           ",
"           . ....... .          ",
"           .. ..... ..          ",
"           ... ... ...          ",
"          ..... . .....         ",
"          ...... ......         ",
"          .....   .....         ",
"         ....  .    ....        ",
"         ..  ...      ..        ",
"           .....      .         ",
"          ......    ..          ",
"           .....   .            ",
"             ... ..             ",
"               ..               ",
"                                ",
"                                ",
"                                ",
"......                      ....",
"..... .                    . ...",
".... ..                    .. ..",
"... ...                    ... .",
" . .....                  ..... ",
". ......                  ......"
};
