/* XPM */
static char *result[] = {
/* columns rows colors chars-per-pixel */
"32 32 2 1 ",
"  c #B7D8D2",
". c #C5E3DB",
/* pixels */
"        ........        ........",
"       .........       .........",
"       .........       .........",
"      ..........      ..........",
"      ..........      ..........",
"     ...........     ...........",
"    ............    ............",
"  ..............  ..............",
"............... ............... ",
".............   .............   ",
"...........     ...........     ",
"..........      ..........      ",
".........       .........       ",
".........       .........       ",
"........        ........        ",
"........        ........        ",
"        ........        ........",
"       .........       .........",
"       .........       .........",
"      ..........      ..........",
"      ..........      ..........",
"     ...........     ...........",
"    ............    ............",
"  ..............  ..............",
"............... ............... ",
".............   .............   ",
"...........     ...........     ",
"..........      ..........      ",
".........       .........       ",
".........       .........       ",
"........        ........        ",
"........        ........        "
};
