/* XPM */
static char *result[] = {
/* columns rows colors chars-per-pixel */
"32 32 2 1 ",
"  c #80D59F",
". c #8FE19D",
/* pixels */
"                                ",
"      ....            ....      ",
"    ........        ........    ",
"   ..........      ..........   ",
"  ............    ............  ",
"  ............    ............  ",
" ..............  .............. ",
" ..............  .............. ",
" ..............  .............. ",
" ..............  .............. ",
"  ............    ............  ",
"  ............    ............  ",
"   ..........      ..........   ",
"    ........        ........    ",
"      ....            ....      ",
"                                ",
"                                ",
"      ....            ....      ",
"    ........        ........    ",
"   ..........      ..........   ",
"  ............    ............  ",
"  ............    ............  ",
" ..............  .............. ",
" ..............  .............. ",
" ..............  .............. ",
" ..............  .............. ",
"  ............    ............  ",
"  ............    ............  ",
"   ..........      ..........   ",
"    ........        ........    ",
"      ....            ....      ",
"                                "
};
