/* XPM */
static char *color_background_721710776708[] = {
/* columns rows colors chars-per-pixel */
"32 32 2 1 ",
"  c #D0747B",
". c #E4888D",
/* pixels */
"                                ",
"                                ",
"................................",
"................................",
"................................",
"                                ",
"                                ",
"    ....    ....    ....    ....",
".    ....    ....    ....    ...",
"..    ....    ....    ....    ..",
"...    ....    ....    ....    .",
"....    ....    ....    ....    ",
" ....    ....    ....    ....   ",
"  ....    ....    ....    ....  ",
"   ....    ....    ....    .... ",
"                                ",
"                                ",
"   ....    ....    ....    .... ",
"  ....    ....    ....    ....  ",
" ....    ....    ....    ....   ",
"....    ....    ....    ....    ",
"...    ....    ....    ....    .",
"..    ....    ....    ....    ..",
".    ....    ....    ....    ...",
"    ....    ....    ....    ....",
"                                ",
"                                ",
"................................",
"................................",
"................................",
"                                ",
"                                "
};
