/* XPM */
static char *result[] = {
/* columns rows colors chars-per-pixel */
"32 32 2 1 ",
"  c #EE8988",
". c #F49C93",
/* pixels */
"............        ............",
"..............        ..........",
"...............          .......",
"       .........                ",
"...      ........           ....",
"...       .......            ...",
"...        .......           ...",
"....        ......            ..",
"....        ......            ..",
".....        ......           ..",
"......       ......            .",
".......      .......           .",
" ........                       ",
" ......................         ",
"  ........................      ",
"   .........................    ",
"    .........................   ",
"      ........................  ",
"         ...................... ",
"                       ........ ",
".           .......      .......",
".            ......       ......",
"..           ......        .....",
"..            ......        ....",
"..            ......        ....",
"...           .......        ...",
"...            .......       ...",
"....           ........      ...",
"                .........       ",
".......          ...............",
"..........        ..............",
"............        ............"
};
