/* XPM */
static char *color_background_831710776713[] = {
/* columns rows colors chars-per-pixel */
"32 32 2 1 ",
"  c #BFAEE1",
". c #C8BEEA",
/* pixels */
"......                     .....",
".......                     ....",
"........                     ...",
".........              ..     ..",
"..........            ....     .",
"...........          ......     ",
" ...........        ........    ",
"  ...........      ..........   ",
"   ..........     ...........   ",
"    ........     ...........    ",
"     ......     ...........     ",
"      ....     ...........      ",
"       ..     ...........       ",
"             ...........        ",
"            ...........         ",
"           ...........          ",
"          ...........           ",
"         ...........            ",
"        ...........             ",
"       ...........     ..       ",
"      ...........     ....      ",
"     ...........     ......     ",
"    ...........     ........    ",
"   ...........     ..........   ",
"   ..........      ...........  ",
"    ........        ........... ",
"     ......          ...........",
".     ....            ..........",
"..     ..              .........",
"...                     ........",
"....                     .......",
".....                     ......"
};
