/* XPM */
static char *result[] = {
/* columns rows colors chars-per-pixel */
"32 32 2 1 ",
"  c #9A8DEF",
". c #B39EF9",
/* pixels */
"                                ",
".......   .............   ......",
"........ ............... .......",
"........ ............... .......",
"........ ............... .......",
"........ ............... .......",
"........ ............... .......",
".......   .............   ......",
"                                ",
"  .............   ............. ",
" ............... ...............",
" ............... ...............",
" ............... ...............",
" ............... ...............",
" ............... ...............",
"  .............   ............. ",
"                                ",
".......   .............   ......",
"........ ............... .......",
"........ ............... .......",
"........ ............... .......",
"........ ............... .......",
"........ ............... .......",
".......   .............   ......",
"                                ",
"  .............   ............. ",
" ............... ...............",
" ............... ...............",
" ............... ...............",
" ............... ...............",
" ............... ...............",
"  .............   ............. "
};
