/* XPM */
static char *color_background_691710776708[] = {
/* columns rows colors chars-per-pixel */
"32 32 2 1 ",
"  c #AFD4CD",
". c #C5E3DB",
/* pixels */
"                                ",
"     ......          ......     ",
"   ..........      ..........   ",
"  ............    ............  ",
"  ............    ............  ",
" .....    .....  .....    ..... ",
" ....      ....  ....      .... ",
" ....      ....  ....      .... ",
" ....      ....  ....      .... ",
" ....      ....  ....      .... ",
" ....      ....  ....      .... ",
" ..............  .............. ",
" ..............  .............. ",
" ..............  .............. ",
"  ............    ............  ",
"                                ",
"                                ",
"...          ......          ...",
".....      ..........      .....",
"......    ............    ......",
"......    ............    ......",
"  .....  .....    .....  .....  ",
"   ....  ....      ....  ....   ",
"   ....  ....      ....  ....   ",
"   ....  ....      ....  ....   ",
"   ....  ....      ....  ....   ",
"   ....  ....      ....  ....   ",
".......  ..............  .......",
".......  ..............  .......",
".......  ..............  .......",
"......    ............    ......",
"                                "
};
