/* XPM */
static char *color_background_701710776708[] = {
/* columns rows colors chars-per-pixel */
"32 32 2 1 ",
"  c #E1CAAD",
". c #ECD6C1",
/* pixels */
"                                ",
"     ......       ............  ",
"   ..........    .............. ",
"  ............   .............. ",
"  ............   .............. ",
" .....    .....  ....      .... ",
" ....      ....  ....      .... ",
" ....      ....  ....      .... ",
" ....      ....  ....      .... ",
" ....      ....  ....      .... ",
" .....    .....  ....      .... ",
"  ............   .............. ",
"  ............   .............. ",
"   ..........    .............. ",
"     ......       ............  ",
"                                ",
"                                ",
"  ............       ......     ",
" ..............    ..........   ",
" ..............   ............  ",
" ..............   ............  ",
" ....      ....  .....    ..... ",
" ....      ....  ....      .... ",
" ....      ....  ....      .... ",
" ....      ....  ....      .... ",
" ....      ....  ....      .... ",
" ....      ....  .....    ..... ",
" ..............   ............  ",
" ..............   ............  ",
" ..............    ..........   ",
"  ............       ......     ",
"                                "
};
