/* XPM */
static char *color_background_171710776613[] = {
/* columns rows colors chars-per-pixel */
"32 32 2 1 ",
"  c #8DF2DF",
". c #A8F8F0",
/* pixels */
"       ..                       ",
"      ....              .       ",
"     ......            . .      ",
"    ........          . . .     ",
"   ..........        . . . .    ",
"  ............      . . . . .   ",
" ..............    . . . . . .  ",
"................  . . . . . . . ",
"................ . . . . . . . .",
" ..............   . . . . . . . ",
"  ............     . . . . . .  ",
"   ..........       . . . . .   ",
"    ........         . . . .    ",
"     ......           . . .     ",
"      ....             . .      ",
"       ..               .       ",
"       .               ..       ",
"      . .             ....      ",
"     . . .           ......     ",
"    . . . .         ........    ",
"   . . . . .       ..........   ",
"  . . . . . .     ............  ",
" . . . . . . .   .............. ",
". . . . . . . . ................",
" . . . . . . .  ................",
"  . . . . . .    .............. ",
"   . . . . .      ............  ",
"    . . . .        ..........   ",
"     . . .          ........    ",
"      . .            ......     ",
"       .              ....      ",
"                       ..       "
};
