/* XPM */
static char *color_background_841710776713[] = {
/* columns rows colors chars-per-pixel */
"32 32 2 1 ",
"  c #86A5D9",
". c #99B0E1",
/* pixels */
"........                ........",
".......                  .......",
".......                  .......",
"......                    ......",
"......                    ......",
".....                      .....",
"....                        ....",
"..                            ..",
"               ..               ",
"             ......             ",
"           ..........           ",
"          ............          ",
"         ..............         ",
"         ..............         ",
"        ................        ",
"        ................        ",
"        ................        ",
"       ................         ",
"       ................         ",
"      ................          ",
"      ................          ",
"     ................           ",
"    ................            ",
"  ................              ",
"...............                .",
".............                ...",
"...........                .....",
"..........                ......",
".........                .......",
".........                .......",
"........                ........",
"........                ........"
};
