/* XPM */
static char *color_background_891710776715[] = {
/* columns rows colors chars-per-pixel */
"32 32 2 1 ",
"  c #B3AFA7",
". c #DED7CF",
/* pixels */
"............        ............",
"..........            ..........",
".......                  .......",
"....                        ....",
"...            ..            ...",
"...            ..            ...",
"...           ....           ...",
"..            ....            ..",
"..            ....            ..",
"..           ......           ..",
".            ......            .",
".            ......            .",
"            ........            ",
"         ..............         ",
"      ....................      ",
"    ........................    ",
"    ........................    ",
"      ....................      ",
"         ..............         ",
"            ........            ",
".            ......            .",
".            ......            .",
"..           ......           ..",
"..            ....            ..",
"..            ....            ..",
"...           ....           ...",
"...            ..            ...",
"...            ..            ...",
"....                        ....",
".......                  .......",
"..........            ..........",
"............        ............"
};
