/* XPM */
static char *result[] = {
/* columns rows colors chars-per-pixel */
"32 32 2 1 ",
"  c #8FA5F0",
". c #A9B7F8",
/* pixels */
"      ...             ...       ",
"      ...             ...       ",
"      ...             ...       ",
"     ....             ....      ",
"     ....             ....      ",
"    ....               ....     ",
"  ......               ......   ",
".......    .........    ........",
"......   .............   .......",
"....    ...............    .....",
"       ......     ......        ",
"       ....         ....        ",
"      ....           ....       ",
"      ....           ....       ",
"      ...             ...       ",
"      ...             ...       ",
"      ...             ...       ",
"      ...             ...       ",
"      ...             ...       ",
"      ....           ....       ",
"      ....           ....       ",
"       ....         ....        ",
"       ......     ......        ",
"....    ...............    .....",
"......   .............   .......",
".......    .........    ........",
"  ......               ......   ",
"    ....               ....     ",
"     ....             ....      ",
"     ....             ....      ",
"      ...             ...       ",
"      ...             ...       "
};
