/* XPM */
static char *_678d9d9e0d6449ce1feec70ff1713b6wQFt7lQh2gheit46[] = {
/* columns rows colors chars-per-pixel */
"32 32 2 1 ",
"  c #5D5E65",
". c #888792",
/* pixels */
"                                ",
"       .               .        ",
"       .               .        ",
"      ...             ...       ",
"      ...             ...       ",
"     .....           .....      ",
"    ... ...         ... ...     ",
"  ....   ....     ....   ....   ",
".....     ..... .....     ..... ",
"  ....   ....     ....   ....   ",
"    ... ...         ... ...     ",
"     .....           .....      ",
"      ...             ...       ",
"      ...             ...       ",
"       .               .        ",
"       .               .        ",
"                                ",
"       .               .        ",
"       .               .        ",
"      ...             ...       ",
"      ...             ...       ",
"     .....           .....      ",
"    ... ...         ... ...     ",
"  ....   ....     ....   ....   ",
".....     ..... .....     ..... ",
"  ....   ....     ....   ....   ",
"    ... ...         ... ...     ",
"     .....           .....      ",
"      ...             ...       ",
"      ...             ...       ",
"       .               .        ",
"       .               .        "
};
