/* XPM */
static char *result[] = {
/* columns rows colors chars-per-pixel */
"32 32 2 1 ",
"  c #DDA47E",
". c #E5B887",
/* pixels */
"                                ",
"     ......          ......     ",
"   ..........      ..........   ",
"  ............    ............  ",
"  ...........     ...........   ",
" .............   .............  ",
" ............ .  ............ . ",
" .............   .............  ",
" ............ .  ............ . ",
" ........... .   ........... .  ",
" .......... . .  .......... . . ",
"  ........ . .    ........ . .  ",
"  ....... . .     ....... . .   ",
"   . . . . .       . . . . .    ",
"      . . .           . . .     ",
"                                ",
"                                ",
"...          ......          ...",
".....      ..........      .....",
"......    ............    ......",
".....     ...........     ......",
"......   .............   .......",
"..... .  ............ .  .......",
"......   .............   .......",
"..... .  ............ .  .......",
".... .   ........... .   .......",
"... . .  .......... . .  .......",
".. . .    ........ . .    ......",
". . .     ....... . .     ......",
" . .       . . . . .       . . .",
". .           . . .           . ",
"                                "
};
