/* XPM */
static char *color_background_851710776714[] = {
/* columns rows colors chars-per-pixel */
"32 32 2 1 ",
"  c #976B6B",
". c #BE9898",
/* pixels */
"                                ",
"                                ",
"                                ",
"                                ",
"                                ",
"               ..               ",
"               ..               ",
"              ....              ",
"        ...   ....   ...        ",
"        ....  ....  ....        ",
"        ................        ",
"         ..............         ",
"          ............          ",
"          ............          ",
"       ..................       ",
"     ......................     ",
"     ......................     ",
"       ..................       ",
"          ............          ",
"          ............          ",
"         ..............         ",
"        ................        ",
"        ....  ....  ....        ",
"        ...   ....   ...        ",
"              ....              ",
"               ..               ",
"               ..               ",
"                                ",
"                                ",
"                                ",
"                                ",
"                                "
};
