/* XPM */
static char *color_background_621710776704[] = {
/* columns rows colors chars-per-pixel */
"32 32 2 1 ",
"  c #9EBBE6",
". c #B5D0E6",
/* pixels */
" .............   .............  ",
"............... ............... ",
"..  .......  .. ..  .......  .. ",
"..  .......  .. ..  .......  .. ",
"............... ............... ",
"............... ............... ",
"............... ............... ",
"............... ............... ",
"............... ............... ",
"............... ............... ",
"............... ............... ",
"..  .......  .. ..  .......  .. ",
"..  .......  .. ..  .......  .. ",
"............... ............... ",
" .............   .............  ",
"                                ",
" .............   .............  ",
"............... ............... ",
"..  .......  .. ..  .......  .. ",
"..  .......  .. ..  .......  .. ",
"............... ............... ",
"............... ............... ",
"............... ............... ",
"............... ............... ",
"............... ............... ",
"............... ............... ",
"............... ............... ",
"..  .......  .. ..  .......  .. ",
"..  .......  .. ..  .......  .. ",
"............... ............... ",
" .............   .............  ",
"                                "
};
