/* XPM */
static char *result[] = {
/* columns rows colors chars-per-pixel */
"32 32 3 1 ",
"  c #E9AC78",
". c #E9AD78",
"X c #F0BA7E",
/* pixels */
"X..............................X",
"XX............................XX",
"XXX..........................XXX",
"XXXX........................XXXX",
"XXXXX......................XXXXX",
"XXXXXX....................XXXXXX",
"XXXXXXX..................XXXXXXX",
"XXXXXXXX................XXXXXXXX",
" XXXXXXXX..............XXXXXXXX.",
"  XXXXXXXX............XXXXXXXX..",
"   XXXXXXXX..........XXXXXXXX...",
"    XXXXXXXX........XXXXXXXX....",
"     XXXXXXXX......XXXXXXXX.....",
"      XXXXXXXX....XXXXXXXX......",
"       XXXXXXXX..XXXXXXXX.......",
"        XXXXXXXXXXXXXXXX........",
"        XXXXXXXXXXXXXXXX........",
"       XXXXXXXX..XXXXXXXX.......",
"      XXXXXXXX....XXXXXXXX......",
"     XXXXXXXX......XXXXXXXX.....",
"    XXXXXXXX........XXXXXXXX....",
"   XXXXXXXX..........XXXXXXXX...",
"  XXXXXXXX............XXXXXXXX..",
" XXXXXXXX..............XXXXXXXX.",
"XXXXXXXX................XXXXXXXX",
"XXXXXXX..................XXXXXXX",
"XXXXXX....................XXXXXX",
"XXXXX......................XXXXX",
"XXXX........................XXXX",
"XXX..........................XXX",
"XX............................XX",
"X..............................X"
};
