/* XPM */
static char *color_background_811710776712[] = {
/* columns rows colors chars-per-pixel */
"32 32 2 1 ",
"  c #B2CBD1",
". c #C6DFE2",
/* pixels */
"                                ",
"                                ",
"................................",
"................................",
"................................",
"                                ",
"                                ",
"                                ",
"    .      .        .      .    ",
"    ..    ..        ..    ..    ",
"    ...  ...        ...  ...    ",
"    ........        ........    ",
"     ......          ......     ",
"      ....            ....      ",
"       ..              ..       ",
"                                ",
"   .        .      .        .   ",
"  ..        ..    ..        ..  ",
" ...        ...  ...        ... ",
"....        ........        ....",
"...          ......          ...",
"..            ....            ..",
".              ..              .",
"                                ",
"    .      .        .      .    ",
"    ..    ..        ..    ..    ",
"    ...  ...        ...  ...    ",
"    ........        ........    ",
"     ......          ......     ",
"      ....            ....      ",
"       ..              ..       ",
"                                "
};
