/* XPM */
static char *color_background_821710776712[] = {
/* columns rows colors chars-per-pixel */
"32 32 2 1 ",
"  c #D694B5",
". c #DEA5C8",
/* pixels */
"...                          ...",
".....                      .....",
"  .....                  .....  ",
"    .....              .....    ",
"      .....          .....      ",
"        .....      .....        ",
"          .....  .....          ",
"            ........            ",
"            ........            ",
"          ............          ",
"        .....  ..  .....        ",
"      .....    ..    .....      ",
"    .....      ..      .....    ",
"  .....        ..        .....  ",
".....          ..          .....",
"...            ..            ...",
".              ..              .",
".              ..              .",
".              ..              .",
".              ..              .",
".              ..              .",
".              ..              .",
".              ..              .",
".             ....             .",
".           ........           .",
".         .....  .....         .",
".       .....      .....       .",
".     .....          .....     .",
".   .....              .....   .",
". .....                  ..... .",
".....                      .....",
"...                          ..."
};
