/* XPM */
static char *result[] = {
/* columns rows colors chars-per-pixel */
"32 32 2 1 ",
"  c #87E9AB",
". c #98F6C4",
/* pixels */
"................................",
"................................",
"................................",
"................................",
"................................",
"................................",
"................................",
"...........         ............",
".......                 ........",
"...                         ....",
"                                ",
"                                ",
"                                ",
"                                ",
"                                ",
"                                ",
"                                ",
"                                ",
"                                ",
"                                ",
"                                ",
"           .........            ",
"       .................        ",
"   .........................    ",
"................................",
"................................",
"................................",
"................................",
"................................",
"................................",
"................................",
"................................"
};
