/* XPM */
static char *result[] = {
/* columns rows colors chars-per-pixel */
"32 32 2 1 ",
"  c #F7B77F",
". c #FDC587",
/* pixels */
"                                ",
"       . .            ....      ",
"    . . . . .       ........    ",
"   . . . . . .     ..........   ",
"  . . . . . .     ............  ",
"   . . . . . .    ............  ",
"  . . . . . . .  .............. ",
" . . . . . . .   .............. ",
"  . . . . . . .  .............. ",
" . . . . . . .   .............. ",
"  . . . . . .     ............  ",
"   . . . . . .    ............  ",
"  . . . . . .      ..........   ",
"   . . . . .        ........    ",
"      . .             ....      ",
"                                ",
"                                ",
"      ....             . .      ",
"    ........        . . . . .   ",
"   ..........      . . . . . .  ",
"  ............    . . . . . .   ",
"  ............     . . . . . .  ",
" ..............   . . . . . . . ",
" ..............  . . . . . . .  ",
" ..............   . . . . . . . ",
" ..............  . . . . . . .  ",
"  ............    . . . . . .   ",
"  ............     . . . . . .  ",
"   ..........     . . . . . .   ",
"    ........       . . . . .    ",
"      ....            . .       ",
"                                "
};
