/* XPM */
static char *result[] = {
/* columns rows colors chars-per-pixel */
"32 32 2 1 ",
"  c #AAD5D3",
". c #C2E3E4",
/* pixels */
".....    ..............    .....",
".....    ..............    .....",
"....      ............      ....",
"....      ............      ....",
"..          ........          ..",
"                                ",
"                                ",
"                                ",
"            ........            ",
"..        ............        ..",
"....     ..............     ....",
"....     ..............     ....",
".....   ................   .....",
".....   ................   .....",
".....   ................   .....",
".....   ................   .....",
".....   ................   .....",
".....   ................   .....",
".....   ................   .....",
".....   ................   .....",
"....     ..............     ....",
"....     ..............     ....",
"..        ............        ..",
"            ........            ",
"                                ",
"                                ",
"                                ",
"..          ........          ..",
"....      ............      ....",
"....      ............      ....",
".....    ..............    .....",
".....    ..............    ....."
};
