/* XPM */
static char *result[] = {
/* columns rows colors chars-per-pixel */
"32 32 2 1 ",
"  c #D8D3B7",
". c #E3DCC5",
/* pixels */
"................                ",
"...............                .",
"...............                .",
"..............                ..",
"..............                ..",
".............                ...",
"............                ....",
"..........                ......",
"........                ........",
"......                ..........",
"....                ............",
"...                .............",
"..                ..............",
"..                ..............",
".                ...............",
".                ...............",
"                ................",
"               ................ ",
"               ................ ",
"              ................  ",
"              ................  ",
"             ................   ",
"            ................    ",
"          ................      ",
"        ................        ",
"      ................          ",
"    ................            ",
"   ................             ",
"  ................              ",
"  ................              ",
" ................               ",
" ................               "
};
