/* XPM */
static char *color_background_731710776709[] = {
/* columns rows colors chars-per-pixel */
"32 32 2 1 ",
"  c #EFA38D",
". c #F6B798",
/* pixels */
"                                ",
"................................",
"................................",
"                                ",
"                                ",
" ..  ......  ......  ......  .. ",
" ..  ......  ......  ......  .. ",
" ..  ..  ..  ..  ..  ..  ..  .. ",
" ..  ..  ..  ..  ..  ..  ..  .. ",
"...  ..  ..  ......  ..  ..  ...",
"...  ..  ..  ......  ..  ..  ...",
"                                ",
"                                ",
"................................",
"................................",
"                                ",
"                                ",
"................................",
"................................",
"                                ",
"                                ",
"...  ..  ..  ......  ..  ..  ...",
"...  ..  ..  ......  ..  ..  ...",
" ..  ..  ..  ..  ..  ..  ..  .. ",
" ..  ..  ..  ..  ..  ..  ..  .. ",
"...  ......  ..  ..  ......  ...",
"...  ......  ..  ..  ......  ...",
"                                ",
"                                ",
"................................",
"................................",
"                                "
};
