/* XPM */
static char *result[] = {
/* columns rows colors chars-per-pixel */
"32 32 2 1 ",
"  c #A26CDB",
". c #C288F2",
/* pixels */
" . . . . .           . . . . . .",
". . . . .         . . . . . . . ",
" . . .           . . . . . . . .",
"                . . . . .       ",
"....           . . . .       ...",
"...             . . .        ...",
"...            . . .         ...",
"..            . . .         ....",
"..             . . .        ....",
"..            . . .        .....",
".            . . .        ......",
".           . . . .      .......",
"                       ........ ",
"         ...................... ",
"      ........................  ",
"    .........................   ",
"   .........................    ",
"  ........................      ",
" ......................         ",
" ........                       ",
".......      . . . .           .",
"......        . . .            .",
".....        . . .            ..",
"....        . . .             ..",
"....         . . .            ..",
"...         . . .            ...",
"...        . . .             ...",
"...       . . . .           ....",
"       . . . . .                ",
". . . . . . . .           . . . ",
" . . . . . . .         . . . . .",
". . . . . .           . . . . . "
};
