/* XPM */
static char *result[] = {
/* columns rows colors chars-per-pixel */
"32 32 2 1 ",
"  c #EFA38D",
". c #F6B798",
/* pixels */
"                                ",
"                                ",
"                       ..       ",
"                      ....      ",
"       ..            ......     ",
"      ....          ........    ",
"     ......        ..........   ",
"    ........      ............  ",
"    ........      ............  ",
"     ......        ..........   ",
"      ....          ........    ",
"       ..            ......     ",
"                      ....      ",
"                       ..       ",
"                                ",
"                                ",
"                                ",
"       ..                       ",
"      ....                      ",
"     ......            ..       ",
"    ........          ....      ",
"   ..........        ......     ",
"  ............      ........    ",
" ..............    ..........   ",
" ..............    ..........   ",
"  ............      ........    ",
"   ..........        ......     ",
"    ........          ....      ",
"     ......            ..       ",
"      ....                      ",
"       ..                       ",
"                                "
};
