/* XPM */
static char *result[] = {
/* columns rows colors chars-per-pixel */
"32 32 2 1 ",
"  c #95C9AA",
". c #A3D4B9",
/* pixels */
"................................",
"................................",
"..                             .",
"..                             .",
"..                             .",
"..   .......................   .",
"..   .......................   .",
"..   .......................   .",
"..   ...                 ...   .",
"..   ...                 ...   .",
"..   ...                 ...   .",
"..   ...   ...........   ...   .",
"..   ...   ...........   ...   .",
"..   ...   ...........   ...   .",
"..   ...   ...     ...   ...   .",
"..   ...   ...     ...   ...   .",
"..   ...   ...     ...   ...   .",
"..   ...   ...     ...   ...   .",
"..   ...   ...     ...   ...   .",
"..   ...   ...........   ...   .",
"..   ...   ...........   ...   .",
"..   ...   ...........   ...   .",
"..   ...                 ...   .",
"..   ...                 ...   .",
"..   ...                 ...   .",
"..   .......................   .",
"..   .......................   .",
"..   .......................   .",
"..                             .",
"..                             .",
"..                             .",
"................................"
};
