/* XPM */
static char *color_background_741710776709[] = {
/* columns rows colors chars-per-pixel */
"32 32 2 1 ",
"  c #A5D4A6",
". c #B6DBAF",
/* pixels */
"..    ............            ..",
"..     ...........            ..",
"..           .....    ..........",
"..            ....    ..........",
"..            ....    ..........",
"...           ....    ..........",
".........     ....            ..",
"..........    ....            ..",
"..........    ....            ..",
".........     ....            ..",
"...           ............    ..",
"..            ............    ..",
"..            ............    ..",
"..           .............    ..",
"..     ...........            ..",
"..    ............            ..",
"..    ............            ..",
"..     ...........            ..",
"..           .....    ..........",
"..            ....    ..........",
"..            ....    ..........",
"...           ....    ..........",
".........     ....            ..",
"..........    ....            ..",
"..........    ....            ..",
".........     ....            ..",
"...           ............    ..",
"..            ............    ..",
"..            ............    ..",
"..           .............    ..",
"..     ...........            ..",
"..    ............            .."
};
