/* XPM */
static char *result[] = {
/* columns rows colors chars-per-pixel */
"32 32 45 1 ",
"  c #333C39",
". c #333D3A",
"X c #413B37",
"o c #423B37",
"O c #573A33",
"+ c #573B34",
"@ c #563937",
"# c #553B39",
"$ c #663931",
"% c #673931",
"& c #7A3731",
"* c #7B3731",
"= c #624445",
"- c #636866",
"; c #646966",
": c #656968",
"> c #973432",
", c #983432",
"< c #AB3232",
"1 c #AC3232",
"2 c #AD3233",
"3 c #AC3333",
"4 c #AD3333",
"5 c #AC3334",
"6 c #B73D40",
"7 c #B83D40",
"8 c #B93D40",
"9 c #884240",
"0 c #B64E54",
"q c #B74E54",
"w c #B9485A",
"e c #CB4C54",
"r c #CC4C54",
"t c #CC4C55",
"y c #CC4D55",
"u c #D75762",
"i c #D85762",
"p c #D95763",
"a c #D8617C",
"s c #CA6592",
"d c #CB6692",
"f c #CB6693",
"g c #D870A0",
"h c #D77BB9",
"j c None",
/* pixels */
"jjjjj#====================Xjjjjj",
"jjj#=7ppaaaaaaaappppppaaap9@Xjjj",
"jj#7ppaydfffffffaaaaaadffyt1*ojj",
"j.6payd311111111sfffff311111,% j",
"j#upd31111111111111111111111%$Xj",
".6pa411111111111111111111111*$$ ",
".upd3111111111111111111111111%$ ",
".ua41111111111111111111111111%$ ",
".ugw111111,,,,,,,,,,,,1111111%$ ",
".uph51111,%&&&&&&&&&&$>111111%$ ",
".uad31111%&<111111111*&<11111%$ ",
".uh511111%<11111111111811111,%$ ",
".ugw11111%<11111111111i21111%$$ ",
".uph51111%<11111111111i21111%$$ ",
".uph51111%<11111111111i21111%$$ ",
".uph51111%<11111111111i21111%$$ ",
".uph51111%<11111111111i21111%$$ ",
".uad31111%<11111111111i21111%$$ ",
".uh511111%<11111111111i21111%$$ ",
".uh511111*<11111111111i21111*$$ ",
".uh5111118811111111118p211111%$ ",
".uh511111rp8888888888pt111111%$ ",
".uh5111111rttttttttttt1111111%$ ",
".uh51111111111111111111111111%$ ",
".ug4111111111111111,,1111111,%$ ",
".0p2111111111111111%&<111111%$$ ",
":+e1111111111111111%7111111,%$O-",
"j.>1,,1111,11,,,1,,%q,,11,,%$$ j",
"j:+>%$>,,,%>,%$$>%$$$$$>,%$$$O-j",
"jj:+O$$$$$$$$$$$$$$$$$$$$$$OO-jj",
"jjj:;+OOOOOOOOOOOOOOOOOOOOO-;jjj",
"jjjjj:;;;;;;;;;;;;;;;;;;;;;jjjjj"
};
