/* XPM */
static char *result[] = {
/* columns rows colors chars-per-pixel */
"32 32 72 1 ",
"  c #6A3B31",
". c #693C32",
"X c #6B3C32",
"o c #6B3D33",
"O c #694038",
"+ c #7C4836",
"@ c #7C4936",
"# c #7E4936",
"$ c #794939",
"% c #7C4A39",
"& c #9E532C",
"* c #9F542D",
"= c #804B37",
"- c #8D553B",
"; c #8E553B",
": c #8F563B",
"> c #91573A",
", c #91563B",
"< c #92573A",
"1 c #92583B",
"2 c #92583C",
"3 c #A2562D",
"4 c #A2572E",
"5 c #B26231",
"6 c #B36231",
"7 c #B56331",
"8 c #B76331",
"9 c #B76430",
"0 c #B76432",
"q c #B96430",
"w c #BB6530",
"e c #DD7026",
"r c #DC7027",
"t c #DF7126",
"y c #DF7227",
"u c #DF7329",
"i c #9B6849",
"p c #9C6A4A",
"a c #9F6B4A",
"s c #B1774E",
"d c #B77E52",
"f c #DC8643",
"g c #DC8744",
"h c #DC8846",
"j c #DC8946",
"k c #DC8A48",
"l c #DC8B49",
"z c #E6965B",
"x c #D79E65",
"c c #D99E63",
"v c #D99F64",
"b c #D99F65",
"n c #E79A60",
"m c #E69B62",
"M c #E79C63",
"N c #E79D64",
"B c #D9A066",
"V c #D9A167",
"C c #DAA066",
"Z c #DAA168",
"A c #E3AE7B",
"S c #E3AF7C",
"D c #E2B07E",
"F c #E3B07E",
"G c #E3B07F",
"H c #E4B07D",
"J c #938583",
"K c #958987",
"L c #998E8C",
"P c #E4B180",
"I c #EDBF95",
"U c None",
/* pixels */
"UUUUU*pppppppppppppppppppi$UUUUU",
"UUU*ahBVGGGGGGGGGDBBBVGGDxs&$UUU",
"UU3hBVSlMMMMMMMMMNGGGFMMmkje5$UU",
"UXhVSlnttttttttttuMMMnttttte9-OU",
"U4BCnttttttttttttttttttttttr:;$U",
"XhVAttttttttttttttttttttttte6:-O",
"oBCnttttttttttttttttttttttttr:-O",
"oVAttttttttteqqqqqwtttttttttr:-O",
"oZIttttttteq9,7776>qwtttttttr:-O",
"oZItttttte9,78ttte76>wttttttr:-O",
"oZIttttte9,8ttttttte70ftttte9:-O",
"oZItttttr,8ttttttttttucttttr::-O",
"oZItttte9<tttttttttttuvftttr::-O",
"oZIttttr,8tttttttttttylcttte6:-O",
"oZIttttr<tttttttttttttucttttr:-O",
"oZIttttr<tttttttttttttucttttr:-O",
"oVPztttr<tttttttttttttucttttr:-O",
"oBZItttr>wtttttttttttyhcttttr:-O",
"oBZIttte6<tttttttttttubjttte9:-O",
"oVFnttttr<ttttttttttyhcttttr::-O",
"oZIttttte0gftttttttyhbjttttr::-O",
"oZIttttttylvgftttyghbjttttte6:-O",
"oZItttttttyklvggghbkjtttttttr:-O",
"oZItttttttttykkkkkjtttttttttr:-O",
"oVHtttttttewttttttttttttttte9:-O",
".dctttttteq8tttttttttttttttr::-O",
"J=jttttttr1ftttttttttttttte9:;%L",
"U weqwtttr2jeqqqqqwttttteq9::-OU",
"UJ#9:>qqq9>q9:::::>qqqqq9:::;%LU",
"UUJ+@:::::::::::::::::::::;+%LUU",
"UUUKJ+++++++++++++++++++++%KLUUU",
"UUUUUKKKKKKKKKKKKKKKKKKKKKLUUUUU"
};
